<svg width="22" height="22" viewBox="0 0 22 22" fill="none" xmlns="http://www.w3.org/2000/svg">
<rect width="22" height="22" rx="1.5" fill="#FB3E7A"/>
<circle cx="4.97795" cy="4.76066" r="2.29118" fill="white"/>
<rect x="3.17456" y="8.05029" width="3.60978" height="11.4738" rx="0.5" fill="white"/>
<rect x="8.46729" y="8.05029" width="3.60978" height="11.4738" rx="0.5" fill="white"/>
<path d="M16.7072 8.09777C12.9438 7.52747 12.0029 9.66191 11.9521 9.70025L11.8821 13.6495C11.9266 12.7092 12.4934 10.8626 14.4044 10.9987C15.6931 11.1222 15.9943 12.4664 15.9839 13.123V15.3625V18.8907C15.9839 19.3684 16.2982 19.5036 16.4553 19.5115C17.173 19.5088 18.7137 19.5052 19.1349 19.5115C19.556 19.5177 19.6414 19.2212 19.6314 19.0722C19.6526 17.9533 19.6823 15.3495 19.6314 13.8848C19.5806 12.4201 19.4238 11.3504 19.3517 10.9987C19.3051 10.2988 18.7109 8.73881 16.7072 8.09777Z" fill="white"/>
</svg>
