<svg width="114" height="21" viewBox="0 0 114 21" fill="none" xmlns="http://www.w3.org/2000/svg">
<path d="M5.00142 1.09091H0.431108V20H5.00142V1.09091ZM12.3855 11.9119C12.3947 10.2962 13.3365 9.33594 14.7676 9.33594C16.1987 9.33594 17.0481 10.2777 17.0389 11.8473V20H21.5538V10.9609C21.563 7.76633 19.6149 5.63352 16.6326 5.63352C14.5368 5.63352 12.9487 6.69531 12.3208 8.42188H12.1639V5.81818H7.87056V20H12.3855V11.9119Z" fill="#FB3E7A"/>
<path d="M34.57 6.75994H38.9464C38.9094 3.22372 36.0934 0.832386 31.6985 0.832386C27.3775 0.832386 24.266 3.18679 24.2937 6.70455C24.2844 9.57599 26.2972 11.1918 29.5657 11.9396L31.5415 12.4013C33.619 12.8814 34.5515 13.4446 34.57 14.5064C34.5515 15.6605 33.4712 16.4638 31.6339 16.4638C29.6119 16.4638 28.2823 15.522 28.1808 13.7031H23.8043C23.8597 18.1257 26.9343 20.2401 31.6893 20.2401C36.3981 20.2401 39.1864 18.1072 39.2049 14.5156C39.1864 11.4964 37.146 9.64986 33.4158 8.82812L31.7908 8.45881C30.0735 8.08949 28.984 7.51704 29.021 6.39062C29.0302 5.35653 29.9165 4.60866 31.6893 4.60866C33.4712 4.60866 34.4499 5.41193 34.57 6.75994ZM49.5181 5.81818H46.9606V2.42045H42.4457V5.81818H40.5714V9.14204H42.4457V15.9929C42.418 18.8736 44.283 20.3139 47.4684 20.157C48.5579 20.1016 49.3427 19.88 49.7766 19.7507L49.0934 16.4915C48.8995 16.5376 48.4471 16.63 48.1055 16.63C47.3761 16.63 46.9329 16.3253 46.9606 15.4943V9.14204H49.5181V5.81818ZM60.997 13.8786C60.997 15.5312 59.9444 16.4545 58.6056 16.4545C57.2207 16.4545 56.3713 15.5128 56.362 13.9709V5.81818H51.8471V14.8572C51.8564 18.0611 53.8045 20.1847 56.7221 20.1847C58.8457 20.1847 60.4245 19.0952 61.0524 17.3594H61.2001V20H65.5027V5.81818H60.997V13.8786ZM82.152 20V1.09091H77.6371V8.24645H77.5447C77 6.9446 75.772 5.63352 73.5284 5.63352C70.5646 5.63352 67.8871 7.91406 67.8871 12.9183C67.8871 17.7472 70.4169 20.2031 73.5561 20.2031C75.6982 20.2031 76.9723 19.0121 77.5447 17.701H77.6832V20H82.152ZM77.7294 12.9091C77.7294 15.2081 76.7692 16.6854 75.1165 16.6854C73.4453 16.6854 72.522 15.1989 72.522 12.9091C72.522 10.6286 73.4453 9.16051 75.1165 9.16051C76.7692 9.16051 77.7294 10.5916 77.7294 12.9091ZM85.0073 20H89.5222V5.81818H85.0073V20ZM87.2694 4.35014C88.5066 4.35014 89.5868 3.41761 89.5868 2.18963C89.5868 0.961648 88.5066 0.0383521 87.2694 0.0383521C86.0414 0.0383521 84.9519 0.961648 84.9519 2.18963C84.9519 3.41761 86.0414 4.35014 87.2694 4.35014ZM99.0714 20.2678C103.54 20.2678 106.236 17.3224 106.236 12.9553C106.236 8.57883 103.54 5.63352 99.0714 5.63352C94.6119 5.63352 91.9066 8.57883 91.9066 12.9553C91.9066 17.3224 94.6119 20.2678 99.0714 20.2678ZM99.1083 16.8608C97.4279 16.8608 96.5138 15.2727 96.5138 12.9276C96.5138 10.5732 97.4279 8.97585 99.1083 8.97585C100.724 8.97585 101.638 10.5732 101.638 12.9276C101.638 15.2727 100.724 16.8608 99.1083 16.8608ZM111.16 20.2678C112.452 20.2678 113.569 19.206 113.588 17.8672C113.569 16.5653 112.452 15.5036 111.16 15.5036C109.839 15.5036 108.741 16.5561 108.759 17.8672C108.741 19.206 109.83 20.2678 111.16 20.2678Z" fill="white"/>
</svg>
