<svg width="128" height="20" viewBox="0 0 128 20" fill="none" xmlns="http://www.w3.org/2000/svg">
<path d="M9.12274 0.956667C9.30317 0.57483 9.84644 0.57483 10.0269 0.956667L12.275 5.71415C12.3461 5.86465 12.4875 5.96989 12.652 5.99487L17.7137 6.76304C18.1171 6.82425 18.2813 7.31671 17.9954 7.60776L14.3057 11.3641C14.1939 11.4778 14.1432 11.6381 14.169 11.7955L15.0363 17.0764C15.1038 17.4879 14.6677 17.7964 14.3022 17.5957L9.81545 15.1321C9.66557 15.0498 9.48403 15.0498 9.33415 15.1321L4.8474 17.5957C4.4819 17.7964 4.04579 17.4879 4.11336 17.0764L4.9806 11.7955C5.00644 11.6381 4.95566 11.4778 4.8439 11.3641L1.15418 7.60776C0.868296 7.31671 1.03251 6.82425 1.43586 6.76304L6.49756 5.99487C6.66214 5.96989 6.80349 5.86465 6.87461 5.71415L9.12274 0.956667Z" fill="#FFBC01"/>
<path d="M36.3354 0.956667C36.5158 0.57483 37.0591 0.57483 37.2395 0.956667L39.4876 5.71415C39.5588 5.86465 39.7001 5.96989 39.8647 5.99487L44.9264 6.76304C45.3297 6.82425 45.494 7.31671 45.2081 7.60776L41.5183 11.3641C41.4066 11.4778 41.3558 11.6381 41.3817 11.7955L42.2489 17.0764C42.3165 17.4879 41.8804 17.7964 41.5149 17.5957L37.0281 15.1321C36.8782 15.0498 36.6967 15.0498 36.5468 15.1321L32.06 17.5957C31.6945 17.7964 31.2584 17.4879 31.326 17.0764L32.1932 11.7955C32.2191 11.6381 32.1683 11.4778 32.0566 11.3641L28.3668 7.60776C28.0809 7.31671 28.2452 6.82425 28.6485 6.76304L33.7102 5.99487C33.8748 5.96989 34.0161 5.86465 34.0873 5.71415L36.3354 0.956667Z" fill="#FFBC01"/>
<path d="M63.5479 0.956667C63.7283 0.57483 64.2716 0.57483 64.452 0.956667L66.7002 5.71415C66.7713 5.86465 66.9126 5.96989 67.0772 5.99487L72.1389 6.76304C72.5423 6.82425 72.7065 7.31671 72.4206 7.60776L68.7309 11.3641C68.6191 11.4778 68.5683 11.6381 68.5942 11.7955L69.4614 17.0764C69.529 17.4879 69.0929 17.7964 68.7274 17.5957L64.2406 15.1321C64.0907 15.0498 63.9092 15.0498 63.7593 15.1321L59.2726 17.5957C58.9071 17.7964 58.471 17.4879 58.5385 17.0764L59.4058 11.7955C59.4316 11.6381 59.3808 11.4778 59.2691 11.3641L55.5794 7.60776C55.2935 7.31671 55.4577 6.82425 55.861 6.76304L60.9227 5.99487C61.0873 5.96989 61.2287 5.86465 61.2998 5.71415L63.5479 0.956667Z" fill="#FFBC01"/>
<path d="M90.7606 0.956667C90.941 0.57483 91.4843 0.57483 91.6647 0.956667L93.9128 5.71415C93.9839 5.86465 94.1253 5.96989 94.2899 5.99487L99.3516 6.76304C99.7549 6.82425 99.9191 7.31671 99.6332 7.60776L95.9435 11.3641C95.8318 11.4778 95.781 11.6381 95.8068 11.7955L96.6741 17.0764C96.7416 17.4879 96.3055 17.7964 95.94 17.5957L91.4533 15.1321C91.3034 15.0498 91.1219 15.0498 90.972 15.1321L86.4852 17.5957C86.1197 17.7964 85.6836 17.4879 85.7512 17.0764L86.6184 11.7955C86.6443 11.6381 86.5935 11.4778 86.4817 11.3641L82.792 7.60776C82.5061 7.31671 82.6703 6.82425 83.0737 6.76304L88.1354 5.99487C88.3 5.96989 88.4413 5.86465 88.5124 5.71415L90.7606 0.956667Z" fill="#FFBC01"/>
<path d="M117.973 0.956667C118.154 0.57483 118.697 0.57483 118.877 0.956667L121.125 5.71415C121.196 5.86465 121.338 5.96989 121.502 5.99487L126.564 6.76304C126.967 6.82425 127.132 7.31671 126.846 7.60776L123.156 11.3641C123.044 11.4778 122.994 11.6381 123.019 11.7955L123.887 17.0764C123.954 17.4879 123.518 17.7964 123.153 17.5957L118.666 15.1321C118.516 15.0498 118.334 15.0498 118.184 15.1321L113.698 17.5957C113.332 17.7964 112.896 17.4879 112.964 17.0764L113.831 11.7955C113.857 11.6381 113.806 11.4778 113.694 11.3641L110.005 7.60776C109.719 7.31671 109.883 6.82425 110.286 6.76304L115.348 5.99487C115.512 5.96989 115.654 5.86465 115.725 5.71415L117.973 0.956667Z" fill="#FFBC01"/>
<path d="M117.969 0.967025C118.078 0.735431 118.426 0.813418 118.426 1.06957V14.9999L113.698 17.5956C113.333 17.7963 112.897 17.4878 112.964 17.0763L113.832 11.7954C113.857 11.638 113.807 11.4777 113.695 11.364L110.005 7.60766C109.719 7.31662 109.883 6.82416 110.287 6.76294L115.349 5.99477C115.513 5.9698 115.654 5.86456 115.726 5.71406L117.969 0.967025Z" fill="#FFBC01"/>
<path d="M118.425 0.662109V1.05273C118.229 1.12401 117.864 1.20652 117.968 0.966386C118.072 0.726254 118.316 0.66348 118.425 0.662109Z" fill="#FFBC01"/>
</svg>
