<svg width="22" height="19" viewBox="0 0 22 19" fill="none" xmlns="http://www.w3.org/2000/svg">
<path d="M4.80433 13.9055L0 15.6475C5.29988 19.4013 11.5524 18.0088 14.0162 16.8433C14.5302 16.6661 15.9966 15.8013 17.751 13.7598C19.5055 11.7183 19.7048 7.59933 19.5852 5.79504L22 2.37046H20.5189L21.348 0.0601529L17.9997 1.12353L17.6199 0.775362C17.0513 0.294404 15.278 -0.459516 12.7331 0.372466C10.1882 1.20445 9.80688 3.77788 9.93433 4.9606C6.32499 4.66696 3.21016 1.70774 2.10391 0.264836C0.501121 2.05115 1.1317 4.69594 1.64734 5.79504C1.17385 5.72402 1.16596 5.52862 1.10879 5.52862C0.672354 7.37291 1.66741 9.22721 2.21949 9.92382C2.52009 11.8744 4.06689 13.3904 4.80433 13.9055Z" fill="white"/>
</svg>
