<svg width="146" height="27" viewBox="0 0 146 27" fill="none" xmlns="http://www.w3.org/2000/svg">
<path d="M5.016 8.504H0.088V5.6H13.508V8.504H8.58V21H5.016V8.504ZM18.2038 10.726C18.6145 10.154 19.1645 9.72133 19.8538 9.428C20.5578 9.13467 21.3645 8.988 22.2738 8.988V12.156C21.8925 12.1267 21.6358 12.112 21.5038 12.112C20.5211 12.112 19.7511 12.3907 19.1938 12.948C18.6365 13.4907 18.3578 14.312 18.3578 15.412V21H14.9258V9.164H18.2038V10.726ZM36.3244 9.164V21H33.0684V19.592C32.6137 20.1053 32.0711 20.5013 31.4404 20.78C30.8097 21.044 30.1277 21.176 29.3944 21.176C27.8397 21.176 26.6077 20.7287 25.6984 19.834C24.7891 18.9393 24.3344 17.612 24.3344 15.852V9.164H27.7664V15.346C27.7664 17.2527 28.5657 18.206 30.1644 18.206C30.9857 18.206 31.6457 17.942 32.1444 17.414C32.6431 16.8713 32.8924 16.072 32.8924 15.016V9.164H36.3244ZM43.4859 21.176C42.5033 21.176 41.5426 21.0587 40.6039 20.824C39.6653 20.5747 38.9173 20.2667 38.3599 19.9L39.5039 17.436C40.0319 17.7733 40.6699 18.052 41.4179 18.272C42.1659 18.4773 42.8993 18.58 43.6179 18.58C45.0699 18.58 45.7959 18.2207 45.7959 17.502C45.7959 17.1647 45.5979 16.9227 45.2019 16.776C44.8059 16.6293 44.1973 16.5047 43.3759 16.402C42.4079 16.2553 41.6086 16.0867 40.9779 15.896C40.3473 15.7053 39.7973 15.368 39.3279 14.884C38.8733 14.4 38.6459 13.7107 38.6459 12.816C38.6459 12.068 38.8586 11.408 39.2839 10.836C39.7239 10.2493 40.3546 9.79467 41.1759 9.472C42.0119 9.14933 42.9946 8.988 44.1239 8.988C44.9599 8.988 45.7886 9.08333 46.6099 9.274C47.4459 9.45 48.1353 9.69933 48.6779 10.022L47.5339 12.464C46.4926 11.8773 45.3559 11.584 44.1239 11.584C43.3906 11.584 42.8406 11.6867 42.4739 11.892C42.1073 12.0973 41.9239 12.3613 41.9239 12.684C41.9239 13.0507 42.1219 13.3073 42.5179 13.454C42.9139 13.6007 43.5446 13.74 44.4099 13.872C45.3779 14.0333 46.1699 14.2093 46.7859 14.4C47.4019 14.576 47.9373 14.906 48.3919 15.39C48.8466 15.874 49.0739 16.5487 49.0739 17.414C49.0739 18.1473 48.8539 18.8 48.4139 19.372C47.9739 19.944 47.3286 20.3913 46.4779 20.714C45.6419 21.022 44.6446 21.176 43.4859 21.176ZM58.8254 20.428C58.4881 20.6773 58.0701 20.868 57.5714 21C57.0874 21.1173 56.5741 21.176 56.0314 21.176C54.6234 21.176 53.5308 20.8167 52.7534 20.098C51.9908 19.3793 51.6094 18.3233 51.6094 16.93V12.068H49.7834V9.428H51.6094V6.546H55.0414V9.428H57.9894V12.068H55.0414V16.886C55.0414 17.3847 55.1661 17.7733 55.4154 18.052C55.6794 18.316 56.0461 18.448 56.5154 18.448C57.0581 18.448 57.5201 18.3013 57.9014 18.008L58.8254 20.428ZM71.9807 15.126C71.9807 15.17 71.9587 15.478 71.9147 16.05H62.9607C63.1221 16.7833 63.5034 17.3627 64.1047 17.788C64.7061 18.2133 65.4541 18.426 66.3487 18.426C66.9647 18.426 67.5074 18.338 67.9767 18.162C68.4607 17.9713 68.9081 17.678 69.3187 17.282L71.1447 19.262C70.0301 20.538 68.4021 21.176 66.2607 21.176C64.9261 21.176 63.7454 20.9193 62.7187 20.406C61.6921 19.878 60.9001 19.152 60.3427 18.228C59.7854 17.304 59.5067 16.2553 59.5067 15.082C59.5067 13.9233 59.7781 12.882 60.3207 11.958C60.8781 11.0193 61.6334 10.2933 62.5867 9.78C63.5547 9.252 64.6327 8.988 65.8207 8.988C66.9794 8.988 68.0281 9.23733 68.9667 9.736C69.9054 10.2347 70.6387 10.9533 71.1667 11.892C71.7094 12.816 71.9807 13.894 71.9807 15.126ZM65.8427 11.584C65.0654 11.584 64.4127 11.804 63.8847 12.244C63.3567 12.684 63.0341 13.2853 62.9167 14.048H68.7467C68.6294 13.3 68.3067 12.706 67.7787 12.266C67.2507 11.8113 66.6054 11.584 65.8427 11.584ZM86.3216 4.676V21H83.0436V19.636C82.193 20.6627 80.961 21.176 79.3476 21.176C78.233 21.176 77.221 20.9267 76.3116 20.428C75.417 19.9293 74.713 19.218 74.1996 18.294C73.6863 17.37 73.4296 16.2993 73.4296 15.082C73.4296 13.8647 73.6863 12.794 74.1996 11.87C74.713 10.946 75.417 10.2347 76.3116 9.736C77.221 9.23733 78.233 8.988 79.3476 8.988C80.8583 8.988 82.039 9.46467 82.8896 10.418V4.676H86.3216ZM79.9416 18.36C80.807 18.36 81.5256 18.0667 82.0976 17.48C82.6696 16.8787 82.9556 16.0793 82.9556 15.082C82.9556 14.0847 82.6696 13.2927 82.0976 12.706C81.5256 12.1047 80.807 11.804 79.9416 11.804C79.0616 11.804 78.3356 12.1047 77.7636 12.706C77.1916 13.2927 76.9056 14.0847 76.9056 15.082C76.9056 16.0793 77.1916 16.8787 77.7636 17.48C78.3356 18.0667 79.0616 18.36 79.9416 18.36ZM102.725 8.988C103.825 8.988 104.822 9.24467 105.717 9.758C106.626 10.2567 107.337 10.968 107.851 11.892C108.364 12.8013 108.621 13.8647 108.621 15.082C108.621 16.2993 108.364 17.37 107.851 18.294C107.337 19.2033 106.626 19.9147 105.717 20.428C104.822 20.9267 103.825 21.176 102.725 21.176C101.097 21.176 99.8572 20.6627 99.0065 19.636V21H95.7285V4.676H99.1605V10.418C100.026 9.46467 101.214 8.988 102.725 8.988ZM102.131 18.36C103.011 18.36 103.729 18.0667 104.287 17.48C104.859 16.8787 105.145 16.0793 105.145 15.082C105.145 14.0847 104.859 13.2927 104.287 12.706C103.729 12.1047 103.011 11.804 102.131 11.804C101.251 11.804 100.525 12.1047 99.9525 12.706C99.3952 13.2927 99.1165 14.0847 99.1165 15.082C99.1165 16.0793 99.3952 16.8787 99.9525 17.48C100.525 18.0667 101.251 18.36 102.131 18.36ZM122.344 9.164L116.998 21.726C116.455 23.09 115.78 24.0507 114.974 24.608C114.182 25.1653 113.221 25.444 112.092 25.444C111.476 25.444 110.867 25.3487 110.266 25.158C109.664 24.9673 109.173 24.7033 108.792 24.366L110.046 21.924C110.31 22.1587 110.61 22.342 110.948 22.474C111.3 22.606 111.644 22.672 111.982 22.672C112.451 22.672 112.832 22.5547 113.126 22.32C113.419 22.1 113.683 21.726 113.918 21.198L113.962 21.088L108.836 9.164H112.378L115.7 17.194L119.044 9.164H122.344Z" fill="#939393"/>
<rect x="131.508" y="11.75" width="14" height="3.4" fill="#939393"/>
</svg>
