<svg width="114" height="22" viewBox="0 0 114 22" fill="none" xmlns="http://www.w3.org/2000/svg">
<path d="M5.00142 2.09091V21H0.431108V2.09091H5.00142ZM12.3855 12.9119V21H7.87056V6.81818H12.1639V9.42188H12.3208C12.6348 8.56013 13.1703 7.87997 13.9274 7.38139C14.6845 6.88281 15.5862 6.63352 16.6326 6.63352C17.6298 6.63352 18.4946 6.85511 19.2271 7.2983C19.9657 7.74148 20.5382 8.36316 20.9444 9.16335C21.3568 9.96354 21.56 10.8961 21.5538 11.9609V21H17.0389V12.8473C17.045 12.0594 16.845 11.4439 16.4387 11.0007C16.0386 10.5575 15.4816 10.3359 14.7676 10.3359C14.0536 10.3359 13.478 10.5637 13.041 11.0192C12.6101 11.4747 12.3916 12.1056 12.3855 12.9119Z" fill="#FB3E7A"/>
<path d="M34.57 7.75994C34.5084 7.08286 34.2345 6.55658 33.7482 6.18111C33.2681 5.79948 32.5818 5.60866 31.6893 5.60866C30.8029 5.60866 30.1381 5.77794 29.695 6.11648C29.2518 6.44886 29.0271 6.87358 29.021 7.39062C29.0025 7.95076 29.2456 8.39086 29.7504 8.71094C30.2551 9.02486 30.9353 9.27415 31.7908 9.45881L33.4158 9.82812C35.2809 10.2405 36.7089 10.9145 37.6999 11.8501C38.6971 12.7857 39.1987 14.0076 39.2049 15.5156C39.1987 17.313 38.534 18.7164 37.2106 19.7259C35.8872 20.7353 34.0468 21.2401 31.6893 21.2401C29.3133 21.2401 27.4113 20.7045 25.9833 19.6335C24.5614 18.5563 23.8351 16.9129 23.8043 14.7031H28.1808C28.23 15.6141 28.5655 16.3035 29.1871 16.7713C29.8088 17.233 30.6244 17.4638 31.6339 17.4638C32.551 17.4638 33.2681 17.2822 33.7852 16.919C34.3022 16.5559 34.5638 16.085 34.57 15.5064C34.5638 14.977 34.3176 14.5554 33.8313 14.2415C33.3451 13.9214 32.5818 13.6413 31.5415 13.4013L29.5657 12.9396C27.9345 12.5642 26.645 11.9579 25.6971 11.1207C24.7553 10.2775 24.2875 9.13873 24.2937 7.70455C24.2875 6.52888 24.6014 5.50095 25.2354 4.62074C25.8694 3.74053 26.7435 3.05729 27.8576 2.57102C28.9779 2.0786 30.2582 1.83239 31.6985 1.83239C33.1635 1.83239 34.4345 2.08168 35.5117 2.58025C36.5951 3.07268 37.4353 3.76515 38.0323 4.65767C38.6294 5.54403 38.9341 6.57812 38.9464 7.75994H34.57ZM49.5181 6.81818V10.142H46.9606V16.5405C46.9606 16.959 47.0591 17.2545 47.256 17.4268C47.4592 17.593 47.7423 17.6761 48.1055 17.6761C48.2778 17.6761 48.4594 17.6607 48.6502 17.63C48.8472 17.593 48.9949 17.5623 49.0934 17.5376L49.7766 20.7969C49.5612 20.8584 49.2596 20.9323 48.8718 21.0185C48.484 21.1108 48.0162 21.1723 47.4684 21.2031C45.8742 21.277 44.6339 20.96 43.7475 20.2521C42.8673 19.5443 42.4334 18.4732 42.4457 17.0391V10.142H40.5714V6.81818H42.4457V3.42045H46.9606V6.81818H49.5181ZM60.9716 14.8786V6.81818H65.4773V21H61.1747V18.3594H61.027C60.7131 19.2273 60.1776 19.9167 59.4205 20.4276C58.6695 20.9323 57.7616 21.1847 56.6967 21.1847C55.7242 21.1847 54.8717 20.9631 54.1392 20.5199C53.4129 20.0767 52.8466 19.455 52.4403 18.6548C52.0341 17.8546 51.8279 16.9221 51.8217 15.8572V6.81818H56.3366V14.9709C56.3428 15.7403 56.5459 16.3466 56.946 16.7898C57.3461 17.233 57.8909 17.4545 58.5803 17.4545C59.2512 17.4545 59.8175 17.233 60.2791 16.7898C60.7408 16.3404 60.9716 15.7034 60.9716 14.8786ZM73.5307 21.2031C72.4905 21.2031 71.5395 20.9323 70.6777 20.3906C69.8221 19.8428 69.1389 19.0303 68.628 17.9531C68.1171 16.8759 67.8617 15.531 67.8617 13.9183C67.8617 12.2502 68.1264 10.8807 68.6557 9.80966C69.1851 8.73248 69.8806 7.93537 70.7424 7.41832C71.6041 6.89512 72.5274 6.63352 73.5123 6.63352C74.6325 6.63352 75.5127 6.90743 76.1529 7.45525C76.7992 7.99692 77.2547 8.59399 77.5194 9.24645H77.6117V2.09091H82.1266V21H77.6578V18.701H77.5194C77.2362 19.3535 76.7684 19.9351 76.1159 20.446C75.4635 20.9508 74.6017 21.2031 73.5307 21.2031ZM75.1003 17.6854C75.9251 17.6854 76.5653 17.3437 77.0208 16.6605C77.4824 15.9773 77.7132 15.0601 77.7132 13.9091C77.7132 12.7519 77.4824 11.8378 77.0208 11.1669C76.5653 10.496 75.9251 10.1605 75.1003 10.1605C74.2632 10.1605 73.62 10.5021 73.1706 11.1854C72.7213 11.8625 72.4966 12.7704 72.4966 13.9091C72.4966 15.054 72.7213 15.9711 73.1706 16.6605C73.62 17.3437 74.2632 17.6854 75.1003 17.6854ZM84.9819 21V6.81818H89.4968V21H84.9819ZM87.244 5.16548C86.61 5.16548 86.0652 4.9562 85.6097 4.53764C85.1542 4.11293 84.9265 3.60204 84.9265 3.00497C84.9265 2.40791 85.1542 1.90009 85.6097 1.48153C86.0652 1.06297 86.61 0.853692 87.244 0.853692C87.8841 0.853692 88.4289 1.06297 88.8782 1.48153C89.3337 1.90009 89.5614 2.40791 89.5614 3.00497C89.5614 3.60204 89.3337 4.11293 88.8782 4.53764C88.4289 4.9562 87.8841 5.16548 87.244 5.16548ZM98.9906 21.2678C97.5072 21.2678 96.2299 20.9631 95.1589 20.3537C94.0879 19.7382 93.2631 18.8826 92.6845 17.7869C92.112 16.6851 91.8258 15.4079 91.8258 13.9553C91.8258 12.4964 92.112 11.2192 92.6845 10.1236C93.2631 9.02178 94.0879 8.16619 95.1589 7.55682C96.2299 6.94129 97.5072 6.63352 98.9906 6.63352C100.48 6.63352 101.757 6.94129 102.822 7.55682C103.893 8.16619 104.715 9.02178 105.287 10.1236C105.866 11.2192 106.155 12.4964 106.155 13.9553C106.155 15.4079 105.866 16.6851 105.287 17.7869C104.715 18.8826 103.893 19.7382 102.822 20.3537C101.757 20.9631 100.48 21.2678 98.9906 21.2678ZM99.0183 17.8608C99.8246 17.8608 100.449 17.4976 100.893 16.7713C101.336 16.045 101.557 15.0971 101.557 13.9276C101.557 12.7519 101.336 11.8009 100.893 11.0746C100.449 10.3421 99.8246 9.97585 99.0183 9.97585C98.1812 9.97585 97.5379 10.3421 97.0886 11.0746C96.6454 11.8009 96.4238 12.7519 96.4238 13.9276C96.4238 15.0971 96.6454 16.045 97.0886 16.7713C97.5379 17.4976 98.1812 17.8608 99.0183 17.8608ZM111.007 21.2678C110.343 21.2678 109.773 21.0339 109.299 20.5661C108.831 20.0982 108.601 19.532 108.607 18.8672C108.601 18.2086 108.831 17.6484 109.299 17.1868C109.773 16.7251 110.343 16.4943 111.007 16.4943C111.641 16.4943 112.198 16.7251 112.678 17.1868C113.159 17.6484 113.402 18.2086 113.408 18.8672C113.402 19.532 113.159 20.0982 112.678 20.5661C112.198 21.0339 111.641 21.2678 111.007 21.2678Z" fill="white"/>
</svg>
