<svg width="127" height="19" viewBox="0 0 127 19" fill="none" xmlns="http://www.w3.org/2000/svg">
<path d="M9.05163 0.908493C9.23504 0.53687 9.76496 0.53687 9.94837 0.908493L12.1756 5.42145C12.2485 5.56902 12.3893 5.6713 12.5521 5.69497L17.5325 6.41865C17.9426 6.47825 18.1063 6.98223 17.8096 7.2715L14.2058 10.7843C14.0879 10.8992 14.0341 11.0647 14.062 11.2269L14.9127 16.1871C14.9828 16.5956 14.554 16.9071 14.1872 16.7142L9.73267 14.3723C9.58701 14.2957 9.41299 14.2957 9.26733 14.3723L4.81278 16.7142C4.44596 16.9071 4.01725 16.5956 4.0873 16.1871L4.93805 11.2269C4.96586 11.0647 4.91209 10.8992 4.79425 10.7843L1.19044 7.2715C0.893679 6.98223 1.05743 6.47825 1.46754 6.41865L6.44789 5.69497C6.61074 5.6713 6.75152 5.56902 6.82436 5.42145L9.05163 0.908493Z" fill="#FFBC01"/>
<path d="M36.0516 0.908493C36.235 0.53687 36.765 0.53687 36.9484 0.908493L39.1756 5.42145C39.2485 5.56902 39.3893 5.6713 39.5521 5.69497L44.5325 6.41865C44.9426 6.47825 45.1063 6.98223 44.8096 7.2715L41.2058 10.7843C41.0879 10.8992 41.0341 11.0647 41.062 11.2269L41.9127 16.1871C41.9828 16.5956 41.554 16.9071 41.1872 16.7142L36.7327 14.3723C36.587 14.2957 36.413 14.2957 36.2673 14.3723L31.8128 16.7142C31.446 16.9071 31.0172 16.5956 31.0873 16.1871L31.938 11.2269C31.9659 11.0647 31.9121 10.8992 31.7942 10.7843L28.1904 7.2715C27.8937 6.98223 28.0574 6.47825 28.4675 6.41865L33.4479 5.69497C33.6107 5.6713 33.7515 5.56902 33.8244 5.42145L36.0516 0.908493Z" fill="#FFBC01"/>
<path d="M63.0516 0.908493C63.235 0.53687 63.765 0.53687 63.9484 0.908493L66.1756 5.42145C66.2485 5.56902 66.3893 5.6713 66.5521 5.69497L71.5325 6.41865C71.9426 6.47825 72.1063 6.98223 71.8096 7.2715L68.2058 10.7843C68.0879 10.8992 68.0341 11.0647 68.062 11.2269L68.9127 16.1871C68.9828 16.5956 68.554 16.9071 68.1872 16.7142L63.7327 14.3723C63.587 14.2957 63.413 14.2957 63.2673 14.3723L58.8128 16.7142C58.446 16.9071 58.0172 16.5956 58.0873 16.1871L58.938 11.2269C58.9659 11.0647 58.9121 10.8992 58.7942 10.7843L55.1904 7.2715C54.8937 6.98223 55.0574 6.47825 55.4675 6.41865L60.4479 5.69497C60.6107 5.6713 60.7515 5.56902 60.8244 5.42145L63.0516 0.908493Z" fill="#FFBC01"/>
<path d="M90.0516 0.908493C90.235 0.53687 90.765 0.53687 90.9484 0.908493L93.1756 5.42145C93.2485 5.56902 93.3893 5.6713 93.5521 5.69497L98.5325 6.41865C98.9426 6.47825 99.1063 6.98223 98.8096 7.2715L95.2058 10.7843C95.0879 10.8992 95.0341 11.0647 95.062 11.2269L95.9127 16.1871C95.9828 16.5956 95.554 16.9071 95.1872 16.7142L90.7327 14.3723C90.587 14.2957 90.413 14.2957 90.2673 14.3723L85.8128 16.7142C85.446 16.9071 85.0172 16.5956 85.0873 16.1871L85.938 11.2269C85.9659 11.0647 85.9121 10.8992 85.7942 10.7843L82.1904 7.2715C81.8937 6.98223 82.0574 6.47825 82.4675 6.41865L87.4479 5.69497C87.6107 5.6713 87.7515 5.56902 87.8244 5.42145L90.0516 0.908493Z" fill="#FFBC01"/>
<path d="M117.052 0.908493C117.235 0.53687 117.765 0.53687 117.948 0.908493L120.176 5.42145C120.248 5.56902 120.389 5.6713 120.552 5.69497L125.532 6.41865C125.943 6.47825 126.106 6.98223 125.81 7.2715L122.206 10.7843C122.088 10.8992 122.034 11.0647 122.062 11.2269L122.913 16.1871C122.983 16.5956 122.554 16.9071 122.187 16.7142L117.733 14.3723C117.587 14.2957 117.413 14.2957 117.267 14.3723L112.813 16.7142C112.446 16.9071 112.017 16.5956 112.087 16.1871L112.938 11.2269C112.966 11.0647 112.912 10.8992 112.794 10.7843L109.19 7.2715C108.894 6.98223 109.057 6.47825 109.468 6.41865L114.448 5.69497C114.611 5.6713 114.752 5.56902 114.824 5.42145L117.052 0.908493Z" fill="#B7B5C1"/>
<path d="M117.045 0.92231C117.157 0.694607 117.5 0.774604 117.5 1.02853V14.2499L112.813 16.7141C112.446 16.907 112.017 16.5955 112.087 16.1871L112.938 11.2268C112.966 11.0646 112.912 10.8991 112.794 10.7843L109.19 7.27141C108.894 6.98214 109.057 6.47815 109.467 6.41856L114.448 5.69487C114.611 5.67121 114.751 5.56893 114.824 5.42136L117.045 0.92231Z" fill="#FFBC01"/>
<path d="M117.5 0.628906V1C117.306 1.06771 116.943 1.14609 117.046 0.917969C117.15 0.689844 117.391 0.630208 117.5 0.628906Z" fill="#FFBC01"/>
</svg>
